<svg xmlns="http://www.w3.org/2000/svg" version="1.0" width="92" height="43" viewBox="0 0 141.000000 54.000000" preserveAspectRatio="xMidYMid meet">

<g transform="translate(0.000000,54.000000) scale(0.100000,-0.100000)" fill="#fff" stroke="none">
<path d="M401 461 c-13 -24 9 -57 33 -48 23 9 31 34 16 52 -17 20 -37 19 -49 -4z"/>
<path d="M1010 404 l0 -75 -22 15 c-46 33 -125 10 -153 -44 -18 -35 -20 -129 -3 -165 13 -30 55 -55 90 -55 13 0 37 9 55 19 31 19 31 19 36 0 3 -10 12 -19 21 -19 14 0 16 24 16 200 0 193 -1 200 -20 200 -18 0 -20 -7 -20 -76z m-18 -101 c14 -12 18 -31 18 -84 0 -59 -3 -70 -22 -83 -30 -21 -81 -20 -100 2 -35 39 -29 149 10 171 26 16 73 13 94 -6z"/>
<path d="M60 276 l0 -196 25 0 c25 0 25 1 25 80 l0 80 33 0 c29 0 38 -9 90 -80 45 -63 63 -80 82 -80 14 0 25 2 25 6 0 3 -25 39 -55 79 -57 78 -65 95 -41 95 8 0 26 14 40 31 37 43 36 98 -3 141 -28 31 -31 32 -125 36 l-96 4 0 -196z m178 138 c16 -11 22 -25 22 -54 0 -53 -34 -80 -101 -80 l-49 0 0 75 0 75 53 0 c31 0 61 -6 75 -16z"/>
<path d="M400 220 l0 -140 25 0 25 0 0 140 0 140 -25 0 -25 0 0 -140z"/>
<path d="M540 220 c0 -133 1 -140 20 -140 19 0 20 7 20 104 0 99 1 104 25 120 29 19 76 21 93 4 8 -8 12 -49 12 -120 l0 -108 25 0 25 0 0 111 c0 109 0 111 -29 140 -35 34 -72 37 -118 10 -31 -19 -31 -19 -36 0 -3 10 -12 19 -21 19 -14 0 -16 -19 -16 -140z"/>
<path d="M1132 244 c3 -113 4 -116 31 -140 35 -30 85 -31 120 -4 32 25 37 25 37 0 0 -13 7 -20 20 -20 19 0 20 7 20 140 l0 140 -25 0 -25 0 0 -104 c0 -97 -2 -106 -22 -120 -32 -23 -85 -21 -98 3 -5 11 -10 65 -10 120 l0 101 -26 0 -26 0 4 -116z"/>
</g>
</svg>