<svg width="400" height="400" viewBox="0 0 400 400"
    xmlns="http://www.w3.org/2000/svg">
    <g xmlns="http://www.w3.org/2000/svg" id="svgg"><path id="path0" d="M24.800 200.000 L 24.800 375.200 200.000 375.200 L 375.200 375.200 375.200 200.000 L 375.200 24.800 200.000 24.800 L 24.800 24.800 24.800 200.000 M364.700 200.100 L 364.801 364.801 200.100 364.700 L 35.400 364.600 35.300 200.224 C 35.219 68.987,35.300 35.784,35.700 35.530 C 35.975 35.355,110.090 35.254,200.400 35.306 L 364.600 35.400 364.700 200.100 M107.247 86.143 C 106.918 86.540,106.824 99.066,106.898 132.843 L 107.000 179.000 117.100 179.107 L 127.200 179.214 127.200 163.030 C 127.200 152.993,127.348 146.756,127.588 146.607 C 127.802 146.475,132.887 153.749,138.888 162.772 L 149.800 179.177 162.476 179.189 C 169.448 179.195,175.236 179.065,175.338 178.900 C 175.440 178.735,174.506 177.319,173.262 175.754 C 172.018 174.189,169.290 170.705,167.200 168.011 C 165.110 165.318,162.230 161.632,160.800 159.821 C 159.370 158.010,157.750 155.931,157.200 155.200 C 156.251 153.941,152.922 149.688,151.876 148.400 C 149.161 145.056,149.169 144.764,152.003 143.837 C 162.793 140.308,170.401 128.846,170.400 116.123 C 170.397 100.236,160.241 88.167,145.084 86.038 C 140.218 85.354,107.827 85.444,107.247 86.143 M182.816 86.370 C 182.529 86.907,182.429 101.617,182.498 133.077 L 182.600 179.000 192.902 179.107 L 203.203 179.214 203.102 132.507 L 203.000 85.800 193.118 85.693 C 183.655 85.591,183.218 85.619,182.816 86.370 M220.047 86.143 C 219.718 86.540,219.624 99.066,219.698 132.843 L 219.800 179.000 229.897 179.107 L 239.995 179.214 240.097 150.707 C 240.163 132.356,240.340 122.217,240.593 122.248 C 240.809 122.275,241.329 122.905,241.748 123.648 C 242.889 125.669,244.143 127.932,245.545 130.500 C 246.235 131.765,247.365 133.835,248.055 135.100 C 248.746 136.365,249.736 138.165,250.255 139.100 C 250.775 140.035,251.650 141.610,252.200 142.600 C 252.750 143.590,253.650 145.210,254.200 146.200 C 254.750 147.190,255.625 148.765,256.145 149.700 C 257.425 152.003,259.188 155.232,261.005 158.600 C 261.836 160.140,262.645 161.580,262.802 161.800 C 262.959 162.020,263.864 163.640,264.812 165.400 C 265.760 167.160,266.892 169.230,267.327 170.000 C 267.762 170.770,268.662 172.390,269.328 173.600 C 269.994 174.810,270.939 176.520,271.430 177.400 L 272.321 179.000 282.562 179.107 L 292.803 179.214 292.702 132.507 L 292.600 85.800 283.400 85.687 C 278.340 85.625,273.795 85.674,273.300 85.795 L 272.400 86.015 272.400 114.441 C 272.400 134.550,272.274 142.825,271.970 142.723 C 271.733 142.644,270.907 141.414,270.133 139.990 C 269.360 138.565,267.998 136.050,267.107 134.400 C 266.217 132.750,265.358 131.220,265.200 131.000 C 265.042 130.780,264.136 129.160,263.188 127.400 C 262.240 125.640,261.109 123.570,260.675 122.800 C 259.496 120.706,258.262 118.477,256.800 115.800 C 256.079 114.480,255.064 112.635,254.545 111.700 C 254.025 110.765,253.175 109.235,252.655 108.300 C 252.136 107.365,251.121 105.520,250.400 104.200 C 249.679 102.880,248.639 100.990,248.089 100.000 C 247.539 99.010,246.688 97.480,246.200 96.600 C 245.711 95.720,244.721 93.920,244.000 92.600 C 241.274 87.605,240.656 86.586,240.060 86.100 C 239.137 85.347,220.675 85.387,220.047 86.143 M143.234 103.140 C 152.748 107.736,153.147 124.082,143.846 128.160 C 140.714 129.533,140.072 129.619,133.792 129.511 L 127.400 129.400 127.294 116.248 C 127.215 106.309,127.309 102.951,127.680 102.503 C 128.532 101.477,140.833 101.980,143.234 103.140 M120.267 222.667 C 120.120 222.813,120.000 243.873,120.000 269.467 L 120.000 316.000 135.654 316.000 C 145.092 316.000,152.359 315.826,153.954 315.563 C 157.710 314.943,163.331 313.562,163.780 313.149 C 163.989 312.957,164.405 312.800,164.705 312.800 C 165.707 312.800,170.562 310.276,174.000 307.967 C 197.779 292.002,200.869 256.135,180.219 235.800 C 177.056 232.685,171.733 228.838,168.700 227.474 C 165.309 225.950,164.519 225.628,162.800 225.068 C 159.310 223.933,155.753 223.228,151.431 222.816 C 146.652 222.361,120.697 222.236,120.267 222.667 M205.287 222.873 C 204.657 223.503,204.591 277.892,205.213 284.084 C 207.294 304.805,218.389 315.568,239.300 317.154 C 257.916 318.565,272.687 311.556,278.398 298.600 C 282.117 290.164,282.400 286.805,282.400 251.128 C 282.400 228.010,282.307 223.221,281.850 222.842 C 281.464 222.521,278.407 222.417,271.550 222.493 L 261.800 222.600 261.566 252.600 C 261.343 281.217,261.228 283.991,260.131 287.200 C 255.655 300.297,231.502 300.297,227.073 287.200 C 225.933 283.831,225.850 281.855,225.630 252.800 L 225.400 222.600 215.587 222.493 C 208.290 222.414,205.649 222.511,205.287 222.873 M150.880 242.013 C 179.590 247.607,180.752 289.191,152.400 296.380 C 151.362 296.643,148.398 296.786,145.400 296.718 L 140.200 296.600 140.096 269.600 C 140.039 254.750,140.079 242.375,140.184 242.100 C 140.424 241.471,147.790 241.411,150.880 242.013 " stroke="none" fill="#fefffe" fill-rule="evenodd"/><path id="path1" d="M0.000 200.000 L 0.000 400.000 200.000 400.000 L 400.000 400.000 400.000 200.000 L 400.000 0.000 200.000 0.000 L 0.000 0.000 0.000 200.000 M375.200 200.000 L 375.200 375.200 200.000 375.200 L 24.800 375.200 24.800 200.000 L 24.800 24.800 200.000 24.800 L 375.200 24.800 375.200 200.000 M35.700 35.530 C 35.300 35.784,35.219 68.987,35.300 200.224 L 35.400 364.600 200.100 364.700 L 364.801 364.801 364.700 200.100 L 364.600 35.400 200.400 35.306 C 110.090 35.254,35.975 35.355,35.700 35.530 M145.084 86.038 C 160.241 88.167,170.397 100.236,170.400 116.123 C 170.401 128.846,162.793 140.308,152.003 143.837 C 149.169 144.764,149.161 145.056,151.876 148.400 C 152.922 149.688,156.251 153.941,157.200 155.200 C 157.750 155.931,159.370 158.010,160.800 159.821 C 162.230 161.632,165.110 165.318,167.200 168.011 C 169.290 170.705,172.018 174.189,173.262 175.754 C 174.506 177.319,175.440 178.735,175.338 178.900 C 175.236 179.065,169.448 179.195,162.476 179.189 L 149.800 179.177 138.888 162.772 C 132.887 153.749,127.802 146.475,127.588 146.607 C 127.348 146.756,127.200 152.993,127.200 163.030 L 127.200 179.214 117.100 179.107 L 107.000 179.000 106.898 132.843 C 106.824 99.066,106.918 86.540,107.247 86.143 C 107.827 85.444,140.218 85.354,145.084 86.038 M203.102 132.507 L 203.203 179.214 192.902 179.107 L 182.600 179.000 182.498 133.077 C 182.429 101.617,182.529 86.907,182.816 86.370 C 183.218 85.619,183.655 85.591,193.118 85.693 L 203.000 85.800 203.102 132.507 M240.060 86.100 C 240.656 86.586,241.274 87.605,244.000 92.600 C 244.721 93.920,245.711 95.720,246.200 96.600 C 246.688 97.480,247.539 99.010,248.089 100.000 C 248.639 100.990,249.679 102.880,250.400 104.200 C 251.121 105.520,252.136 107.365,252.655 108.300 C 253.175 109.235,254.025 110.765,254.545 111.700 C 255.064 112.635,256.079 114.480,256.800 115.800 C 258.262 118.477,259.496 120.706,260.675 122.800 C 261.109 123.570,262.240 125.640,263.188 127.400 C 264.136 129.160,265.042 130.780,265.200 131.000 C 265.358 131.220,266.217 132.750,267.107 134.400 C 267.998 136.050,269.360 138.565,270.133 139.990 C 270.907 141.414,271.733 142.644,271.970 142.723 C 272.274 142.825,272.400 134.550,272.400 114.441 L 272.400 86.015 273.300 85.795 C 273.795 85.674,278.340 85.625,283.400 85.687 L 292.600 85.800 292.702 132.507 L 292.803 179.214 282.562 179.107 L 272.321 179.000 271.430 177.400 C 270.939 176.520,269.994 174.810,269.328 173.600 C 268.662 172.390,267.762 170.770,267.327 170.000 C 266.892 169.230,265.760 167.160,264.812 165.400 C 263.864 163.640,262.959 162.020,262.802 161.800 C 262.645 161.580,261.836 160.140,261.005 158.600 C 259.188 155.232,257.425 152.003,256.145 149.700 C 255.625 148.765,254.750 147.190,254.200 146.200 C 253.650 145.210,252.750 143.590,252.200 142.600 C 251.650 141.610,250.775 140.035,250.255 139.100 C 249.736 138.165,248.746 136.365,248.055 135.100 C 247.365 133.835,246.235 131.765,245.545 130.500 C 244.143 127.932,242.889 125.669,241.748 123.648 C 241.329 122.905,240.809 122.275,240.593 122.248 C 240.340 122.217,240.163 132.356,240.097 150.707 L 239.995 179.214 229.897 179.107 L 219.800 179.000 219.698 132.843 C 219.624 99.066,219.718 86.540,220.047 86.143 C 220.675 85.387,239.137 85.347,240.060 86.100 M127.680 102.503 C 127.309 102.951,127.215 106.309,127.294 116.248 L 127.400 129.400 133.792 129.511 C 140.072 129.619,140.714 129.533,143.846 128.160 C 153.147 124.082,152.748 107.736,143.234 103.140 C 140.833 101.980,128.532 101.477,127.680 102.503 M151.431 222.816 C 155.753 223.228,159.310 223.933,162.800 225.068 C 164.519 225.628,165.309 225.950,168.700 227.474 C 193.872 238.792,201.922 275.028,184.411 298.197 C 179.836 304.250,168.299 312.800,164.705 312.800 C 164.405 312.800,163.989 312.957,163.780 313.149 C 163.331 313.562,157.710 314.943,153.954 315.563 C 152.359 315.826,145.092 316.000,135.654 316.000 L 120.000 316.000 120.000 269.467 C 120.000 243.873,120.120 222.813,120.267 222.667 C 120.697 222.236,146.652 222.361,151.431 222.816 M225.630 252.800 C 225.850 281.855,225.933 283.831,227.073 287.200 C 231.502 300.297,255.655 300.297,260.131 287.200 C 261.228 283.991,261.343 281.217,261.566 252.600 L 261.800 222.600 271.550 222.493 C 278.407 222.417,281.464 222.521,281.850 222.842 C 282.307 223.221,282.400 228.010,282.400 251.128 C 282.400 286.805,282.117 290.164,278.398 298.600 C 272.687 311.556,257.916 318.565,239.300 317.154 C 218.389 315.568,207.294 304.805,205.213 284.084 C 204.591 277.892,204.657 223.503,205.287 222.873 C 205.649 222.511,208.290 222.414,215.587 222.493 L 225.400 222.600 225.630 252.800 M140.184 242.100 C 140.079 242.375,140.039 254.750,140.096 269.600 L 140.200 296.600 145.400 296.718 C 178.720 297.475,183.637 248.396,150.880 242.013 C 147.790 241.411,140.424 241.471,140.184 242.100 " stroke="none" fill="#040404" fill-rule="evenodd"/></g>
</svg>